<svg width="84" height="57" viewBox="0 0 84 57" fill="none" xmlns="http://www.w3.org/2000/svg">
<path d="M56.6198 0.720459V55.3947H54.2142V3.56352L28.4079 56.4153L2.74752 3.56352V55.3947H0.560547V0.720459H4.0597L28.6266 51.1665L53.2665 0.720459H56.6198Z" fill="#FFB7EB"/>
<path d="M56.7214 55.3962H54.3887V0.794922H56.7214V29.4822C59.1514 24.7195 63.3552 21.7898 69.333 21.7898C73.4153 21.7898 76.8415 23.1992 79.6117 26.018C82.4305 28.8367 83.8398 32.263 83.8398 36.2967V55.3962H81.5071V36.2967C81.5071 32.8948 80.3164 29.9788 77.935 27.5488C75.5537 25.0703 72.6863 23.831 69.333 23.831C65.9796 23.831 63.0393 25.0703 60.5122 27.5488C58.1768 29.8393 56.7214 34.61 56.7214 37.9633V55.3962Z" fill="#FF12BC"/>
<path d="M43.5408 53.5314L42.8141 53.8706C38.2783 55.9879 33.4956 56.7723 28.4662 56.2238C23.4368 55.6754 18.8623 53.9759 14.7428 51.1255C10.6468 48.2105 7.56071 44.5291 5.48448 40.0813C2.21597 33.0793 1.94216 25.8862 4.66303 18.5019C7.36334 11.0735 12.2365 5.71482 19.2825 2.42575C23.8213 0.30697 29.0741 0.403349 34.4529 0.896018L35.5938 3.34011C30.1386 2.45402 24.9263 2.42575 20.1767 4.34138C13.7032 7.36321 9.24397 12.2873 6.79902 19.1138C4.33352 25.8962 4.62196 32.5462 7.66435 39.0638C10.6862 45.5373 15.5986 50.0288 22.4015 52.5384C29.2045 55.0479 35.8427 54.7918 42.3163 51.7699C49.1772 48.5673 52.0098 42.837 54.4249 37.3541L55.5658 39.7982C53.5111 44.7952 50.2738 50.5851 43.5408 53.5314Z" fill="#FF12BC"/>
<rect x="54.3818" y="0.726807" width="2.36668" height="54.6694" fill="#FFB7EB"/>
</svg>
